HIERARCHY
ROOT Hips
{
 OFFSET 0.000000 0.000000 0.000000
 CHANNELS 6 Xposition Yposition Zposition Yrotation Xrotation Zrotation
 JOINT Chest
 {
  OFFSET 0.000000 10.802813 -1.200313
  CHANNELS 3 Yrotation Xrotation Zrotation
  JOINT Chest2
  {
   OFFSET 0.000000 8.372586 0.000000
   CHANNELS 3 Yrotation Xrotation Zrotation
   JOINT Chest3
   {
    OFFSET 0.000000 7.669674 -0.171725
    CHANNELS 3 Yrotation Xrotation Zrotation
    JOINT Chest4
    {
     OFFSET 0.000000 7.661079 -0.171898
     CHANNELS 3 Yrotation Xrotation Zrotation
     JOINT Neck
     {
      OFFSET 0.000000 11.568124 0.000000
      CHANNELS 3 Yrotation Xrotation Zrotation
      JOINT Head
      {
       OFFSET 0.000000 10.283701 0.120962
       CHANNELS 3 Yrotation Xrotation Zrotation
       End Site
       {
        OFFSET 0.000000 21.208083 -0.017133
       }
      }
     }
     JOINT RightCollar
     {
      OFFSET -3.542312 6.586956 0.000000
      CHANNELS 3 Yrotation Xrotation Zrotation
      JOINT RightShoulder
      {
       OFFSET -19.072397 0.000000 0.000000
       CHANNELS 3 Yrotation Xrotation Zrotation
       JOINT RightElbow
       {
        OFFSET -29.485962 0.000000 0.000000
        CHANNELS 3 Yrotation Xrotation Zrotation
        JOINT RightWrist
        {
         OFFSET -22.858855 0.000000 0.009263
         CHANNELS 3 Yrotation Xrotation Zrotation
         End Site
         {
          OFFSET -20.098599 0.000000 0.000000
         }
        }
       }
      }
     }
     JOINT LeftCollar
     {
      OFFSET 3.542312 6.586956 0.000000
      CHANNELS 3 Yrotation Xrotation Zrotation
      JOINT LeftShoulder
      {
       OFFSET 19.072397 0.000000 0.000000
       CHANNELS 3 Yrotation Xrotation Zrotation
       JOINT LeftElbow
       {
        OFFSET 29.485962 0.000000 0.000000
        CHANNELS 3 Yrotation Xrotation Zrotation
        JOINT LeftWrist
        {
         OFFSET 22.858855 0.000000 0.009263
         CHANNELS 3 Yrotation Xrotation Zrotation
         End Site
         {
          OFFSET 20.098599 0.000000 0.000000
         }
        }
       }
      }
     }
    }
   }
  }
 }
 JOINT RightHip
 {
  OFFSET -9.573125 0.421555 -0.046839
  CHANNELS 3 Yrotation Xrotation Zrotation
  JOINT RightKnee
  {
   OFFSET 0.000000 -59.485791 0.004776
   CHANNELS 3 Yrotation Xrotation Zrotation
   JOINT RightAnkle
   {
    OFFSET 0.000000 -44.784867 -0.013196
    CHANNELS 3 Yrotation Xrotation Zrotation
    JOINT RightToe
    {
     OFFSET 0.000000 -6.003679 15.376803
     CHANNELS 3 Yrotation Xrotation Zrotation
     End Site
     {
      OFFSET 0.000000 -1.912064 8.665418
     }
    }
   }
  }
 }
 JOINT LeftHip
 {
  OFFSET 9.573125 0.419091 -0.046566
  CHANNELS 3 Yrotation Xrotation Zrotation
  JOINT LeftKnee
  {
   OFFSET 0.000000 -59.485791 0.004776
   CHANNELS 3 Yrotation Xrotation Zrotation
   JOINT LeftAnkle
   {
    OFFSET 0.000000 -44.784867 -0.013196
    CHANNELS 3 Yrotation Xrotation Zrotation
    JOINT LeftToe
    {
     OFFSET 0.000000 -6.003679 15.376803
     CHANNELS 3 Yrotation Xrotation Zrotation
     End Site
     {
      OFFSET 0.000000 -1.912064 8.665418
     }
    }
   }
  }
 }
}
MOTION
Frames: 14
Frame Time: 0.016667
-17.702507 110.683017 147.158308 100.153542 6.833447 0.997036 1.174343 3.136140 -1.315393 0.590929 -4.435523 -0.593936 0.589388 1.384600 -0.533931 0.402119 6.874478 -0.404566 1.673953 20.275169 -1.525703 3.505246 1.692293 -3.279780 1.685142 1.330517 1.757528 -7.675526 -25.032751 62.828060 29.463273 -22.594540 38.955462 5.130666 -2.219653 -3.483206 9.039808 2.801341 -2.987416 13.357899 -22.280712 -69.404045 -41.001648 -22.119333 -40.724486 0.519490 -7.104642 17.044604 -5.145720 -18.161795 -2.848609 1.820138 6.748781 -0.826635 -6.117098 -0.557850 10.826013 0.000000 0.000000 0.000000 6.385646 -9.113346 -0.835902 -3.104285 8.061126 0.124900 5.265534 -6.313604 -2.438423 0.000000 0.000000 0.000000
-17.155642 110.586638 147.521785 100.599048 6.645712 1.497483 1.145247 3.165609 -1.453773 0.585254 -4.422624 -0.655440 0.583738 1.397501 -0.596012 0.393262 6.884060 -0.451463 1.669263 20.299332 -1.615239 3.522611 1.740892 -3.440520 1.717157 1.485130 1.865822 -8.808112 -24.092512 63.110647 30.143408 -22.891792 40.160184 5.541844 -1.767468 -4.483217 9.188842 2.841842 -3.130373 14.173189 -22.267031 -69.075962 -40.714583 -21.857705 -41.275907 0.434564 -7.240468 16.127285 -5.604491 -17.956893 -3.135498 2.293374 6.858289 -0.677784 -6.554082 -0.045937 10.218065 0.000000 0.000000 0.000000 6.183495 -8.904488 -1.061247 -3.425484 8.578427 0.197185 5.389019 -6.732377 -2.744684 -0.000016 -0.026669 -0.022832
-16.610021 110.496561 147.900194 101.116781 6.442111 1.990174 1.097868 3.227920 -1.567700 0.570312 -4.394992 -0.705969 0.568866 1.425147 -0.648059 0.378259 6.904728 -0.490783 1.665302 20.293161 -1.722019 3.547421 1.733984 -3.633867 1.812404 1.659175 1.984745 -10.037383 -23.143341 63.414040 30.856441 -23.203317 41.286276 6.005170 -1.362400 -5.404459 9.388841 2.836833 -3.356909 15.147752 -22.462077 -68.775572 -40.173565 -21.523197 -42.064517 0.420248 -7.075183 15.201428 -6.145751 -17.678118 -3.409231 2.726839 6.854408 -0.471114 -7.220253 0.522426 9.031377 0.000000 0.000000 0.000000 5.897947 -8.854068 -1.286785 -3.781167 9.448394 0.295625 5.558631 -7.271421 -3.089765 -0.000036 -0.053351 -0.045650
-16.126786 110.433223 148.301589 101.675969 6.390192 2.320333 1.049721 3.255997 -1.594680 0.550416 -4.382390 -0.717690 0.549050 1.437774 -0.661797 0.362399 6.914202 -0.501132 1.652218 20.244468 -1.810036 3.551875 1.646858 -3.791882 1.848321 1.871987 2.031691 -11.217230 -22.223914 63.756322 31.609779 -23.570386 42.340656 6.454564 -0.937388 -6.304591 9.560312 2.869349 -3.531690 16.320833 -22.735790 -68.646220 -39.564596 -21.131039 -43.010938 0.296425 -6.890714 14.432204 -6.699585 -17.557734 -3.461475 3.134952 6.939573 -0.320751 -7.857613 0.915867 7.839318 0.000000 0.000000 0.000000 5.663910 -9.225217 -1.443936 -4.005566 10.741652 0.438650 5.652549 -7.844017 -3.460837 -0.000000 -0.000000 -0.000000
-15.732331 110.406021 148.752056 102.277896 6.590749 2.368666 1.016444 3.203135 -1.473595 0.529136 -4.405562 -0.663440 0.527813 1.414628 -0.609705 0.350344 6.896948 -0.461701 1.619439 20.146409 -1.870111 3.514099 1.465969 -3.895041 1.755478 2.166051 1.941848 -12.357722 -21.339514 64.205054 32.398599 -24.011849 43.360870 6.890343 -0.444780 -7.243331 9.653609 2.937089 -3.608336 17.959030 -23.069268 -68.795090 -38.846343 -20.543638 -44.293273 -0.048977 -6.761712 13.936817 -7.324384 -17.716905 -3.086282 3.575417 7.234848 -0.292358 -8.343690 1.026494 6.752942 0.000000 0.000000 0.000000 5.558061 -10.231819 -1.473490 -4.012487 12.695966 0.693470 5.602755 -8.450920 -3.790351 0.001725 0.239156 0.206474
-15.400261 110.405557 149.225508 102.923037 6.948625 2.260505 0.983351 3.113410 -1.266565 0.503364 -4.444997 -0.570854 0.502063 1.375217 -0.519736 0.337707 6.867539 -0.393638 1.577464 20.005228 -1.912670 3.455833 1.203944 -3.965158 1.600859 2.500399 1.780901 -13.441335 -20.477694 64.698567 33.229179 -24.507993 44.310189 7.312640 0.065098 -8.160646 9.717428 3.039968 -3.632621 19.808617 -23.449897 -69.134525 -38.072916 -19.875044 -45.715999 -0.503388 -6.619554 13.591842 -7.961398 -18.027500 -2.484235 3.987826 7.622033 -0.316184 -8.789767 0.973352 5.666174 0.000000 0.000000 0.000000 5.501459 -11.658799 -1.447509 -3.873112 15.071030 1.030371 5.474040 -9.090195 -4.146356 0.007711 0.555789 0.484336
-15.112545 110.424076 149.651748 103.582436 7.336779 2.208912 0.922823 3.057147 -1.095370 0.467382 -4.469576 -0.494098 0.466137 1.350663 -0.446638 0.316195 6.849242 -0.338324 1.547862 19.827815 -1.931100 3.414350 0.874229 -3.996294 1.468285 2.769494 1.660399 -14.287341 -19.654391 65.065089 34.133992 -25.048743 45.075628 7.649176 0.506690 -8.941703 9.818671 3.261618 -3.605243 21.123230 -23.761869 -69.501023 -37.538953 -19.563789 -46.679160 -0.895973 -6.532811 13.204566 -8.359225 -18.350629 -2.060273 4.211497 7.942045 -0.302536 -9.269786 0.880243 4.832300 0.000000 0.000000 0.000000 5.402718 -13.122637 -1.487649 -3.665963 17.223500 1.310719 5.338502 -9.668761 -4.718576 0.015009 0.711582 0.626101
-14.874686 110.463101 149.996023 104.280714 7.718680 2.299013 0.800018 3.065128 -0.997968 0.407702 -4.465616 -0.449900 0.406617 1.354665 -0.408500 0.274412 6.852325 -0.309396 1.546323 19.603322 -1.922826 3.417915 0.457205 -3.988988 1.397465 2.905133 1.622126 -14.749621 -18.857515 65.170338 35.161725 -25.653995 45.564497 7.864631 0.827170 -9.498561 10.020616 3.672715 -3.512370 21.507830 -23.954089 -69.860664 -37.343140 -19.895351 -46.891412 -1.168183 -6.546303 12.658592 -8.368109 -18.642318 -2.012978 4.193368 8.117951 -0.195457 -9.885310 0.775855 4.404836 -0.000000 0.000000 -0.000000 5.124692 -14.579081 -1.627251 -3.288124 19.130243 1.488294 5.352036 -10.192837 -5.668723 0.015840 0.550440 0.490317
-14.681180 110.521108 150.293086 104.995171 8.127878 2.446993 0.649599 3.107829 -0.934153 0.337557 -4.446247 -0.420512 0.336678 1.374080 -0.386233 0.223647 6.866955 -0.292445 1.557258 19.342129 -1.891152 3.438359 -0.028484 -3.944346 1.351070 2.974861 1.622445 -14.989675 -18.105713 65.158076 36.283973 -26.309010 45.847481 7.991698 1.070470 -9.928419 10.261081 4.201431 -3.364900 21.342624 -24.099302 -70.222599 -37.358001 -20.626090 -46.680990 -1.372423 -6.610512 12.074436 -8.133884 -18.946455 -2.154809 3.989260 8.221508 -0.052352 -10.527520 0.630208 4.229404 0.000000 0.000000 -0.000000 4.813669 -16.071657 -1.827584 -2.846863 20.817622 1.606294 5.355437 -10.644082 -6.837758 0.008665 0.234550 0.211585
-14.497485 110.585775 150.576990 105.627099 8.539942 2.608799 0.547315 3.167193 -0.908428 0.290829 -4.419627 -0.408415 0.290091 1.400731 -0.378882 0.189280 6.886981 -0.286814 1.554881 19.082914 -1.837560 3.427319 -0.512168 -3.855444 1.299533 3.076412 1.644747 -15.286719 -17.465527 65.272032 37.416173 -26.954371 46.060036 8.059676 1.295517 -10.396190 10.419154 4.717738 -3.200944 21.041979 -24.283081 -70.482449 -37.516789 -21.423839 -46.396222 -1.508460 -6.648386 11.620750 -7.845343 -19.262422 -2.313440 3.603790 8.315562 0.044173 -10.956018 0.476651 4.096174 0.000000 0.000000 -0.000000 4.813084 -17.344867 -2.103084 -2.764989 21.722027 1.595614 4.954658 -10.909664 -7.922487 0.000000 0.000000 0.000000
-14.312687 110.657531 150.866031 106.126950 8.943397 2.772959 0.533528 3.244326 -0.934526 0.286205 -4.385334 -0.420006 0.285494 1.435029 -0.390945 0.184951 6.912699 -0.295945 1.525505 18.838341 -1.749649 3.355114 -0.971363 -3.694295 1.224448 3.254231 1.694279 -15.751757 -16.968495 65.641719 38.535907 -27.594622 46.267718 8.069915 1.557396 -11.018677 10.430810 5.189657 -3.016276 20.664311 -24.540732 -70.581629 -37.825463 -22.238214 -46.059170 -1.550484 -6.650977 11.383235 -7.510476 -19.595090 -2.442583 2.912985 8.437078 0.043461 -11.003865 0.310806 3.955685 0.000000 -0.000000 -0.000000 5.450392 -18.270335 -2.512848 -3.354270 21.531534 1.338361 3.719311 -11.033291 -8.917938 -0.002668 -0.052352 -0.046742
-14.137700 110.735948 151.141914 106.544181 9.350328 2.948837 0.566531 3.339435 -0.999870 0.304511 -4.343189 -0.449414 0.303779 1.477164 -0.418492 0.196635 6.944263 -0.316831 1.482599 18.595209 -1.639128 3.250148 -1.429235 -3.486746 1.145805 3.463594 1.767405 -16.262003 -16.580441 66.137174 39.663213 -28.224764 46.410857 8.023670 1.800523 -11.679870 10.363292 5.648321 -2.814555 20.153364 -24.841224 -70.572294 -38.286016 -23.118693 -45.633886 -1.532730 -6.621866 11.278969 -7.120351 -19.939616 -2.589620 2.039957 8.548652 -0.004982 -10.837885 0.139018 3.854307 0.000000 0.000000 0.000000 6.401785 -18.964307 -3.013923 -4.307026 20.559895 0.912292 2.111005 -10.990507 -9.865745 -0.001515 -0.026439 -0.023068
-13.970716 110.807410 151.383799 106.927833 9.772816 3.122679 0.599335 3.432866 -1.070462 0.323030 -4.301804 -0.481162 0.322281 1.518536 -0.448357 0.208313 6.975250 -0.339473 1.440774 18.353742 -1.543226 3.150898 -1.883106 -3.305676 1.090281 3.668782 1.834428 -16.741744 -16.270049 66.610068 40.769506 -28.773779 46.446145 7.951252 1.918762 -12.194050 10.289889 6.059067 -2.648033 19.762595 -25.155238 -70.538117 -38.815323 -23.877432 -45.382340 -1.550884 -6.504566 11.223065 -6.840644 -20.286915 -2.714894 1.359991 8.605269 -0.032471 -10.719653 0.010997 3.726806 -0.000000 0.000000 -0.000000 7.026781 -19.548033 -3.459172 -5.128160 19.181950 0.529194 1.059331 -10.572444 -10.505124 0.000000 0.000000 0.000000
-13.808713 110.871715 151.576961 107.309701 10.223711 3.313875 0.609103 3.514215 -1.145232 0.331513 -4.265744 -0.514595 0.330767 1.554589 -0.480929 0.212279 7.002250 -0.364134 1.401825 18.114441 -1.476364 3.065669 -2.331525 -3.178260 1.082862 3.870377 1.891135 -17.199101 -16.032268 67.059736 41.890142 -29.194766 46.277729 7.840875 1.865598 -12.441711 10.231976 6.414560 -2.539722 19.575327 -25.440293 -70.494178 -39.436593 -24.434704 -45.410785 -1.675959 -6.211677 11.173315 -6.761421 -20.632394 -2.816058 1.041303 8.562814 -0.016758 -10.755087 -0.039790 3.548676 0.000000 0.000000 0.000000 7.101788 -20.030011 -3.837115 -5.818891 17.324729 0.263768 1.050449 -9.517814 -10.587397 0.000000 -0.000000 0.000000
